<svg t="1734332223288" class="icon" viewBox="0 0 1024 1024" version="1.1" xmlns="http://www.w3.org/2000/svg" p-id="4244" width="200" height="200"><path d="M480 896C250.624 896 64 709.376 64 480S250.624 64 480 64s416 186.624 416 416-186.624 416-416 416z m0-768C285.92 128 128 285.92 128 480s157.92 352 352 352 352-157.92 352-352S674.08 128 480 128z" p-id="4245" fill="#000000"></path><path d="M640 520H320a32 32 0 0 1 0-64h320a32 32 0 1 1 0 64zM896.64 960.64a31.904 31.904 0 0 1-22.624-9.376l-160.64-160.64a31.968 31.968 0 1 1 45.248-45.248l160.64 160.64a31.968 31.968 0 0 1-22.624 54.624z" p-id="4246" fill="#000000"></path></svg>