<svg t="1734073152814" class="icon" viewBox="0 0 1024 1024" version="1.1" xmlns="http://www.w3.org/2000/svg" p-id="1395" width="200" height="200"><path d="M933.5296 66.1504a163.84 163.84 0 0 1-201.5744 255.488 37.7344 37.7344 0 0 1-2.9696 3.3792l-405.504 405.504a39.424 39.424 0 0 1-3.328 2.9696A163.8912 163.8912 0 1 1 266.24 679.5264a38.912 38.912 0 0 1 2.9696-3.328l405.504-405.504c1.024-1.024 2.1504-2.048 3.328-2.9696a163.8912 163.8912 0 0 1 255.488-201.5744z m-54.272 54.272a87.04 87.04 0 1 1-123.136 123.136 87.04 87.04 0 0 1 123.136-123.0848zM242.0736 880.7936a87.04 87.04 0 1 0-123.136-123.0848 87.04 87.04 0 0 0 123.136 123.0848z" p-id="1396" fill="#000000"></path></svg>