<svg t="1734073123802" class="icon" viewBox="0 0 1024 1024" version="1.1" xmlns="http://www.w3.org/2000/svg" p-id="955" width="200" height="200"><path d="M621.312 155.3408c13.5168 13.5168 6.7584 33.792-6.7584 47.2576-20.2752 6.7584-40.4992 6.7584-47.2576-13.5168-47.3088-74.24-135.0656-121.5488-229.632-121.5488-148.5824 0-270.1312 121.5488-270.1312 270.1312 0 94.5664 47.2576 175.616 121.5488 229.632 20.2752 6.7584 20.2752 26.9824 13.5168 40.4992-13.5168 20.2752-33.792 20.2752-47.2576 13.5168C60.7744 560.5376 0 452.5056 0 337.664 0 148.5824 148.5824 0 337.664 0c114.8416 0 222.8736 60.7744 283.648 155.3408zM310.6816 317.3888l256.6144 634.88 87.808-256.6656a60.928 60.928 0 0 1 40.4992-40.4992l256.6144-81.0496-641.536-256.6656z m26.9824-60.7744l641.536 256.6656c33.792 13.4656 54.0672 54.016 40.5504 87.7568a60.928 60.928 0 0 1-40.4992 40.5504l-256.6144 87.7568-87.808 249.856c-13.5168 33.792-47.2576 54.0672-87.808 40.5504a60.8768 60.8768 0 0 1-40.4992-40.4992L249.856 344.4224c-13.4656-33.792 6.7584-74.24 40.5504-87.808 13.5168-6.7584 33.792-6.7584 47.2576 0z" p-id="956" fill="#000000"></path></svg>