<svg t="1734506417248" class="icon" viewBox="0 0 1024 1024" version="1.1" xmlns="http://www.w3.org/2000/svg" p-id="9865" width="200" height="200"><path d="M604.377717 142.793206c0 14.717187-11.311557 26.636893-25.298967 26.636893h-120.65661c-13.987409 0-25.298967-11.919705-25.298966-26.636893 0-14.717187 11.311557-26.636893 25.298966-26.636893h120.65661c13.987409 0.12163 25.298967 12.041335 25.298967 26.636893z m0 0" fill="#AAAAAA" p-id="9866"></path><path d="M579.07875 179.16047h-120.65661c-19.339114 0-35.150968-16.298373-35.150968-36.367264s15.690224-36.367265 35.150968-36.367265h120.65661c19.339114 0 35.150968 16.298373 35.150968 36.367265s-15.811854 36.367265-35.150968 36.367264z m-120.65661-53.152155c-8.635705 0-15.568595 7.541038-15.568594 16.784891 0 9.243853 6.93289 16.784891 15.568594 16.784891h120.65661c8.635705 0 15.568595-7.541038 15.568595-16.784891 0-9.243853-6.93289-16.784891-15.568595-16.784891h-120.65661z m0 0" fill="#4D5152" p-id="9867"></path><path d="M451.002732 169.430099s17.27141 77.721345-84.532605 256.760185h288.383894s-50.476304-76.01853-73.707567-256.760185h-130.143722z m0 0" fill="#FFFFFF" p-id="9868"></path><path d="M654.854021 440.785842H349.685236l8.270816-14.595558c97.911866-172.22758 83.681197-249.097518 83.437938-249.827296l-2.432593-11.798075 11.919705-0.12163h138.779428l1.094667 8.514075c22.623114 175.75484 71.639862 251.894999 72.12638 252.624778l9.973631 15.203706h-18.001187z m-271.720632-19.460744h254.93574c-15.446965-29.799264-47.557192-104.601497-65.43675-237.177812h-110.804608c1.094667 27.366671-4.865186 103.020311-78.694382 237.177812z m0 0" fill="#4D5152" p-id="9869"></path><path d="M618.973275 974.010215l-231.947738-1.094667c-49.381637 9.487112-49.381637-47.557192-39.894524-68.477491 41.840599-92.073643 49.138377-24.325929 18.974225-188.647583-17.14978-93.16831-14.352298-270.747595-14.352298-270.747595l301.763155-1.216296s4.257038 178.795581-12.771113 271.963891c-22.744744 123.697351-4.378667 137.319872 18.974225 188.647583 9.487112 20.920299 9.487112 77.964604-39.894525 68.477491l-231.947737 1.094667" fill="#FFDD71" p-id="9870"></path><path d="M637.582611 983.740587c-3.52726 0-7.297779-0.364889-11.311557-1.094667v1.094667l-115.548165-0.486519-115.548165 0.486519v-1.094667c-23.961041 4.257038-37.218672-5.230075-44.151562-14.109039-15.082076-19.217484-12.892743-51.935859-5.473334-68.234232l0.729778-1.581186c42.448747-93.04668 46.827414-22.501485 17.636299-181.349804-17.14978-93.04668-14.595558-267.341965-14.473929-272.693669l1.459556-7.176149 322.440195-0.364889-0.973037 7.176149c0.12163 5.473334 2.554223 180.011878-14.473928 273.058558-21.771707 118.345647-6.324742 128.805796 17.636299 181.349804l0.729778 1.581186c7.419408 16.298373 9.608742 49.016748-5.473335 68.234232-6.081482 7.419408-16.298373 15.203706-33.204893 15.203706z m-9.608742-20.555411l0.973037 0.12163c12.162965 2.310963 20.67704 0.12163 26.150374-6.81126 9.608742-12.284594 8.270816-36.610524 3.040741-48.043711l-0.729778-1.581185c-23.839411-52.179119-41.840599-68.599121-18.974225-193.02625 14.109039-76.748307 14.473928-227.6907 14.352299-259.557668l-284.005227 0.364889c-0.243259 31.745338 0.243259 182.444471 14.352299 259.192779 30.285782 164.929802 23.231263 100.222829-18.974225 193.02625l-0.729778 1.581185c-5.230075 11.433187-6.568001 35.759116 3.040741 48.043711 5.473334 6.93289 13.987409 9.122224 26.150374 6.81126l0.973037-0.12163 117.25098 0.486519 117.129351-0.486519z m0 0" fill="#4D5152" p-id="9871"></path><path d="M544.414301 290.694857s33.083264 54.976601 23.109633 104.966385" fill="#67DDE0" p-id="9872"></path><path d="M577.132676 397.607317l-19.217484-3.892149c9.122224-45.732747-21.528448-97.425347-21.893337-98.033496l16.784892-10.09526c1.459556 2.554223 35.029338 58.990379 24.325929 112.020905z m0 0" fill="#4D5152" p-id="9873"></path><path d="M417.554579 600.728828a96.087421 58.382231 0 1 0 192.174843 0 96.087421 58.382231 0 1 0-192.174843 0Z" fill="#FCFCFC" p-id="9874"></path></svg>